<svg width="91" height="91" viewBox="0 0 91 91" fill="none" xmlns="http://www.w3.org/2000/svg">
<g clip-path="url(#clip0_9_293)">
<g clip-path="url(#clip1_9_293)">
<path d="M29.3184 45.5032L31.7124 35.6579C31.9549 34.6573 32.5268 33.7672 33.3362 33.1309C34.1455 32.4945 35.1454 32.1487 36.175 32.1492H71.0675C74.0412 32.1492 76.2295 34.9359 75.53 37.8237L70.1547 59.942C69.6535 61.9993 67.8094 63.4507 65.6922 63.4507H30.7997C27.8259 63.4507 25.6376 60.6677 26.3371 57.7724M30.1339 42.1366H74.4752" stroke="#0A0A0A" stroke-width="3.74062" stroke-linecap="round" stroke-linejoin="round"/>
<path d="M34.6824 55.6253H46.4392M13.7087 32.1492H25.387M17.0379 42.1366H23.0042" stroke="#E00800" stroke-width="3.74062" stroke-linecap="round" stroke-linejoin="round"/>
</g>
</g>
<defs>
<clipPath id="clip0_9_293">
<rect width="89.7749" height="89.7749" fill="white" transform="translate(0.61731 0.353638)"/>
</clipPath>
<clipPath id="clip1_9_293">
<rect width="89.7749" height="89.7749" fill="white" transform="translate(0.61731 0.353638)"/>
</clipPath>
</defs>
</svg>
