<svg width="91" height="91" viewBox="0 0 91 91" fill="none" xmlns="http://www.w3.org/2000/svg">
<g clip-path="url(#clip0_9_330)">
<g clip-path="url(#clip1_9_330)">
<path d="M32.3339 71.7903H58.5182M45.4522 62.4949V71.7903" stroke="#0A0A0A" stroke-width="3.74062" stroke-linecap="round" stroke-linejoin="round"/>
<path d="M56.7043 41.1772H34.2606M56.7043 41.1772L50.3715 34.4403M56.7043 41.1772L49.9712 47.51" stroke="#E00800" stroke-width="3.74062" stroke-linecap="round" stroke-linejoin="round"/>
<path d="M58.5151 62.495H17.4281C16.436 62.495 15.4846 62.1009 14.7831 61.3994C14.0816 60.6979 13.6875 59.7465 13.6875 58.7544V21.3482C13.6875 20.3561 14.0816 19.4047 14.7831 18.7032C15.4846 18.0017 16.436 17.6076 17.4281 17.6076H73.4776C74.4696 17.6076 75.4211 18.0017 76.1226 18.7032C76.8241 19.4047 77.2182 20.3561 77.2182 21.3482V58.7544C77.2182 59.7465 76.8241 60.6979 76.1226 61.3994C75.4211 62.1009 74.4696 62.495 73.4776 62.495" stroke="#0A0A0A" stroke-width="3.74062" stroke-linecap="round" stroke-linejoin="round"/>
</g>
</g>
<defs>
<clipPath id="clip0_9_330">
<rect width="89.7749" height="89.7749" fill="white" transform="translate(0.594849 0.774857)"/>
</clipPath>
<clipPath id="clip1_9_330">
<rect width="89.7749" height="89.7749" fill="white" transform="translate(0.594849 0.774857)"/>
</clipPath>
</defs>
</svg>
